<svg id="visual" viewBox="0 0 2256 1504" width="2256" height="1504" xmlns="http://www.w3.org/2000/svg" xmlns:xlink="http://www.w3.org/1999/xlink" version="1.1"><rect x="0" y="0" width="2256" height="1504" fill="#0b0021"></rect><defs><linearGradient id="grad1_0" x1="33.3%" y1="0%" x2="100%" y2="100%"><stop offset="20%" stop-color="#af3cfa" stop-opacity="1"></stop><stop offset="80%" stop-color="#af3cfa" stop-opacity="1"></stop></linearGradient></defs><defs><linearGradient id="grad1_1" x1="33.3%" y1="0%" x2="100%" y2="100%"><stop offset="20%" stop-color="#af3cfa" stop-opacity="1"></stop><stop offset="80%" stop-color="#8e39db" stop-opacity="1"></stop></linearGradient></defs><defs><linearGradient id="grad1_2" x1="33.3%" y1="0%" x2="100%" y2="100%"><stop offset="20%" stop-color="#7034bb" stop-opacity="1"></stop><stop offset="80%" stop-color="#8e39db" stop-opacity="1"></stop></linearGradient></defs><defs><linearGradient id="grad1_3" x1="33.3%" y1="0%" x2="100%" y2="100%"><stop offset="20%" stop-color="#7034bb" stop-opacity="1"></stop><stop offset="80%" stop-color="#552d9b" stop-opacity="1"></stop></linearGradient></defs><defs><linearGradient id="grad1_4" x1="33.3%" y1="0%" x2="100%" y2="100%"><stop offset="20%" stop-color="#3d257b" stop-opacity="1"></stop><stop offset="80%" stop-color="#552d9b" stop-opacity="1"></stop></linearGradient></defs><defs><linearGradient id="grad1_5" x1="33.3%" y1="0%" x2="100%" y2="100%"><stop offset="20%" stop-color="#3d257b" stop-opacity="1"></stop><stop offset="80%" stop-color="#281c5c" stop-opacity="1"></stop></linearGradient></defs><defs><linearGradient id="grad1_6" x1="33.3%" y1="0%" x2="100%" y2="100%"><stop offset="20%" stop-color="#17123d" stop-opacity="1"></stop><stop offset="80%" stop-color="#281c5c" stop-opacity="1"></stop></linearGradient></defs><defs><linearGradient id="grad1_7" x1="33.3%" y1="0%" x2="100%" y2="100%"><stop offset="20%" stop-color="#17123d" stop-opacity="1"></stop><stop offset="80%" stop-color="#0b0021" stop-opacity="1"></stop></linearGradient></defs><defs><linearGradient id="grad2_0" x1="0%" y1="0%" x2="66.7%" y2="100%"><stop offset="20%" stop-color="#af3cfa" stop-opacity="1"></stop><stop offset="80%" stop-color="#af3cfa" stop-opacity="1"></stop></linearGradient></defs><defs><linearGradient id="grad2_1" x1="0%" y1="0%" x2="66.7%" y2="100%"><stop offset="20%" stop-color="#8e39db" stop-opacity="1"></stop><stop offset="80%" stop-color="#af3cfa" stop-opacity="1"></stop></linearGradient></defs><defs><linearGradient id="grad2_2" x1="0%" y1="0%" x2="66.7%" y2="100%"><stop offset="20%" stop-color="#8e39db" stop-opacity="1"></stop><stop offset="80%" stop-color="#7034bb" stop-opacity="1"></stop></linearGradient></defs><defs><linearGradient id="grad2_3" x1="0%" y1="0%" x2="66.7%" y2="100%"><stop offset="20%" stop-color="#552d9b" stop-opacity="1"></stop><stop offset="80%" stop-color="#7034bb" stop-opacity="1"></stop></linearGradient></defs><defs><linearGradient id="grad2_4" x1="0%" y1="0%" x2="66.7%" y2="100%"><stop offset="20%" stop-color="#552d9b" stop-opacity="1"></stop><stop offset="80%" stop-color="#3d257b" stop-opacity="1"></stop></linearGradient></defs><defs><linearGradient id="grad2_5" x1="0%" y1="0%" x2="66.7%" y2="100%"><stop offset="20%" stop-color="#281c5c" stop-opacity="1"></stop><stop offset="80%" stop-color="#3d257b" stop-opacity="1"></stop></linearGradient></defs><defs><linearGradient id="grad2_6" x1="0%" y1="0%" x2="66.7%" y2="100%"><stop offset="20%" stop-color="#281c5c" stop-opacity="1"></stop><stop offset="80%" stop-color="#17123d" stop-opacity="1"></stop></linearGradient></defs><defs><linearGradient id="grad2_7" x1="0%" y1="0%" x2="66.7%" y2="100%"><stop offset="20%" stop-color="#0b0021" stop-opacity="1"></stop><stop offset="80%" stop-color="#17123d" stop-opacity="1"></stop></linearGradient></defs><g transform="translate(2256, 0)"><path d="M0 1220.1C-109.4 1146.3 -218.8 1072.6 -338.4 1041.4C-457.9 1010.2 -587.5 1021.7 -711.2 978.9C-834.9 936.2 -952.6 839.2 -987.1 717.2C-1021.5 595.1 -972.7 447.9 -997.7 324.2C-1022.6 200.4 -1121.4 100.2 -1220.1 0L0 0Z" fill="#110b2f"></path><path d="M0 1067.6C-95.7 1003.1 -191.5 938.5 -296.1 911.2C-400.7 884 -514.1 894 -622.3 856.5C-730.5 819.1 -833.6 734.3 -863.7 627.5C-893.9 520.7 -851.1 391.9 -873 283.6C-894.8 175.4 -981.2 87.7 -1067.6 0L0 0Z" fill="#1f174c"></path><path d="M0 915.1C-82.1 859.8 -164.1 804.4 -253.8 781.1C-343.4 757.7 -440.7 766.2 -533.4 734.2C-626.2 702.1 -714.5 629.4 -740.3 537.9C-766.2 446.3 -729.5 335.9 -748.2 243.1C-767 150.3 -841 75.2 -915.1 0L0 0Z" fill="#32206b"></path><path d="M0 762.6C-68.4 716.5 -136.8 670.4 -211.5 650.9C-286.2 631.4 -367.2 638.5 -444.5 611.8C-521.8 585.1 -595.4 524.5 -616.9 448.2C-638.5 371.9 -607.9 279.9 -623.5 202.6C-639.1 125.3 -700.9 62.6 -762.6 0L0 0Z" fill="#49298b"></path><path d="M0 610.1C-54.7 573.2 -109.4 536.3 -169.2 520.7C-229 505.1 -293.8 510.8 -355.6 489.5C-417.5 468.1 -476.3 419.6 -493.5 358.6C-510.8 297.5 -486.4 223.9 -498.8 162.1C-511.3 100.2 -560.7 50.1 -610.1 0L0 0Z" fill="#6231ab"></path><path d="M0 457.5C-41 429.9 -82.1 402.2 -126.9 390.5C-171.7 378.8 -220.3 383.1 -266.7 367.1C-313.1 351.1 -357.2 314.7 -370.2 268.9C-383.1 223.2 -364.8 168 -374.1 121.6C-383.5 75.2 -420.5 37.6 -457.5 0L0 0Z" fill="#7f37cb"></path><path d="M0 305C-27.4 286.6 -54.7 268.1 -84.6 260.4C-114.5 252.6 -146.9 255.4 -177.8 244.7C-208.7 234 -238.2 209.8 -246.8 179.3C-255.4 148.8 -243.2 112 -249.4 81C-255.7 50.1 -280.3 25.1 -305 0L0 0Z" fill="#9e3bea"></path><path d="M0 152.5C-13.7 143.3 -27.4 134.1 -42.3 130.2C-57.2 126.3 -73.4 127.7 -88.9 122.4C-104.4 117 -119.1 104.9 -123.4 89.6C-127.7 74.4 -121.6 56 -124.7 40.5C-127.8 25.1 -140.2 12.5 -152.5 0L0 0Z" fill="#af3cfa"></path></g><g transform="translate(0, 1504)"><path d="M0 -1220.1C130.9 -1212.8 261.7 -1205.6 377 -1160.4C492.3 -1115.2 592.1 -1032.2 694.2 -955.4C796.3 -878.7 900.7 -808.1 981.3 -713C1062 -617.8 1118.8 -498.1 1154.6 -375.1C1190.4 -252.2 1205.3 -126.1 1220.1 0L0 0Z" fill="#110b2f"></path><path d="M0 -1067.6C114.5 -1061.2 229 -1054.9 329.9 -1015.4C430.8 -975.8 518.1 -903.2 607.4 -836C696.7 -768.8 788.1 -707.1 858.7 -623.9C929.2 -540.6 978.9 -435.8 1010.3 -328.3C1041.6 -220.7 1054.6 -110.3 1067.6 0L0 0Z" fill="#1f174c"></path><path d="M0 -915.1C98.2 -909.6 196.3 -904.2 282.8 -870.3C369.3 -836.4 444.1 -774.2 520.6 -716.6C597.2 -659 675.5 -606.1 736 -534.7C796.5 -463.4 839.1 -373.6 865.9 -281.4C892.8 -189.2 903.9 -94.6 915.1 0L0 0Z" fill="#32206b"></path><path d="M0 -762.6C81.8 -758 163.6 -753.5 235.6 -725.3C307.7 -697 370.1 -645.1 433.9 -597.2C497.7 -549.2 562.9 -505.1 613.3 -445.6C663.7 -386.1 699.2 -311.3 721.6 -234.5C744 -157.6 753.3 -78.8 762.6 0L0 0Z" fill="#49298b"></path><path d="M0 -610.1C65.4 -606.4 130.9 -602.8 188.5 -580.2C246.2 -557.6 296 -516.1 347.1 -477.7C398.1 -439.3 450.4 -404.1 490.7 -356.5C531 -308.9 559.4 -249 577.3 -187.6C595.2 -126.1 602.6 -63.1 610.1 0L0 0Z" fill="#6231ab"></path><path d="M0 -457.5C49.1 -454.8 98.2 -452.1 141.4 -435.2C184.6 -418.2 222 -387.1 260.3 -358.3C298.6 -329.5 337.8 -303 368 -267.4C398.2 -231.7 419.5 -186.8 433 -140.7C446.4 -94.6 452 -47.3 457.5 0L0 0Z" fill="#7f37cb"></path><path d="M0 -305C32.7 -303.2 65.4 -301.4 94.3 -290.1C123.1 -278.8 148 -258.1 173.5 -238.9C199.1 -219.7 225.2 -202 245.3 -178.2C265.5 -154.5 279.7 -124.5 288.6 -93.8C297.6 -63.1 301.3 -31.5 305 0L0 0Z" fill="#9e3bea"></path><path d="M0 -152.5C16.4 -151.6 32.7 -150.7 47.1 -145.1C61.5 -139.4 74 -129 86.8 -119.4C99.5 -109.8 112.6 -101 122.7 -89.1C132.7 -77.2 139.8 -62.3 144.3 -46.9C148.8 -31.5 150.7 -15.8 152.5 0L0 0Z" fill="#af3cfa"></path></g></svg>