<svg width="2256" height="1504" viewBox="0 0 2256 1504" fill="none" xmlns="http://www.w3.org/2000/svg">
<g clip-path="url(#clip0_1_2)">
<path d="M2256 0H0V1504H2256V0Z" fill="#09001B"/>
<path d="M2256 1220.1C2146.6 1146.3 2037.2 1072.6 1917.6 1041.4C1798.1 1010.2 1668.5 1021.7 1544.8 978.9C1421.1 936.2 1303.4 839.2 1268.9 717.2C1234.5 595.1 1283.3 447.9 1258.3 324.2C1233.4 200.4 1134.6 100.2 1035.9 0H2256V1220.1Z" fill="#C22EDB"/>
<path d="M2256 1067.6C2160.3 1003.1 2064.5 938.5 1959.9 911.2C1855.3 884 1741.9 894 1633.7 856.5C1525.5 819.1 1422.4 734.3 1392.3 627.5C1362.1 520.7 1404.9 391.9 1383 283.6C1361.2 175.4 1274.8 87.7 1188.4 0H2256V1067.6Z" fill="#0644B3"/>
<path d="M2256 915.1C2173.9 859.8 2091.9 804.4 2002.2 781.1C1912.6 757.7 1815.3 766.2 1722.6 734.2C1629.8 702.1 1541.5 629.4 1515.7 537.9C1489.8 446.3 1526.5 335.9 1507.8 243.1C1489 150.3 1415 75.2 1340.9 0H2256V915.1Z" fill="#11A00C"/>
<path d="M2256 762.6C2187.6 716.5 2119.2 670.4 2044.5 650.9C1969.8 631.4 1888.8 638.5 1811.5 611.8C1734.2 585.1 1660.6 524.5 1639.1 448.2C1617.5 371.9 1648.1 279.9 1632.5 202.6C1616.9 125.3 1555.1 62.6 1493.4 0H2256V762.6Z" fill="#FFE501"/>
<path d="M2256 610.1C2201.3 573.2 2146.6 536.3 2086.8 520.7C2027 505.1 1962.2 510.8 1900.4 489.5C1838.5 468.1 1779.7 419.6 1762.5 358.6C1745.2 297.5 1769.6 223.9 1757.2 162.1C1744.7 100.2 1695.3 50.1 1645.9 0H2256V610.1Z" fill="#FE8C01"/>
<path d="M2256 457.5C2215 429.9 2173.9 402.2 2129.1 390.5C2084.3 378.8 2035.7 383.1 1989.3 367.1C1942.9 351.1 1898.8 314.7 1885.8 268.9C1872.9 223.2 1891.2 168 1881.9 121.6C1872.5 75.2 1835.5 37.6 1798.5 0H2256V457.5Z" fill="#FF0000"/>
<path d="M2256 305C2228.6 286.6 2201.3 268.1 2171.4 260.4C2141.5 252.6 2109.1 255.4 2078.2 244.7C2047.3 234 2017.8 209.8 2009.2 179.3C2000.6 148.8 2012.8 112 2006.6 81C2000.3 50.1 1975.7 25.1 1951 0H2256V305Z" fill="#784F17"/>
<path d="M2256 152.5C2242.3 143.3 2228.6 134.1 2213.7 130.2C2198.8 126.3 2182.6 127.7 2167.1 122.4C2151.6 117 2136.9 104.9 2132.6 89.6C2128.3 74.4 2134.4 56 2131.3 40.5C2128.2 25.1 2115.8 12.5 2103.5 0H2256V152.5Z" fill="black"/>
<path d="M0 283.9C130.9 291.2 261.7 298.4 377 343.6C492.3 388.8 592.1 471.8 694.2 548.6C796.3 625.3 900.7 695.9 981.3 791C1062 886.2 1118.8 1005.9 1154.6 1128.9C1190.4 1251.8 1205.3 1377.9 1220.1 1504H0V283.9Z" fill="#C22EDB"/>
<path d="M0 436.4C114.5 442.8 229 449.1 329.9 488.6C430.8 528.2 518.1 600.8 607.4 668C696.7 735.2 788.1 796.9 858.7 880.1C929.2 963.4 978.9 1068.2 1010.3 1175.7C1041.6 1283.3 1054.6 1393.7 1067.6 1504H0V436.4Z" fill="#0644B3"/>
<path d="M0 588.9C98.2 594.4 196.3 599.8 282.8 633.7C369.3 667.6 444.1 729.8 520.6 787.4C597.2 845 675.5 897.9 736 969.3C796.5 1040.6 839.1 1130.4 865.9 1222.6C892.8 1314.8 903.9 1409.4 915.1 1504H0V588.9Z" fill="#11A00C"/>
<path d="M0 741.4C81.8 746 163.6 750.5 235.6 778.7C307.7 807 370.1 858.9 433.9 906.8C497.7 954.8 562.9 998.9 613.3 1058.4C663.7 1117.9 699.2 1192.7 721.6 1269.5C744 1346.4 753.3 1425.2 762.6 1504H0V741.4Z" fill="#FFE501"/>
<path d="M0 893.9C65.4 897.6 130.9 901.2 188.5 923.8C246.2 946.4 296 987.9 347.1 1026.3C398.1 1064.7 450.4 1099.9 490.7 1147.5C531 1195.1 559.4 1255 577.3 1316.4C595.2 1377.9 602.6 1440.9 610.1 1504H0V893.9Z" fill="#FE8C01"/>
<path d="M0 1046.5C49.1 1049.2 98.2 1051.9 141.4 1068.8C184.6 1085.8 222 1116.9 260.3 1145.7C298.6 1174.5 337.8 1201 368 1236.6C398.2 1272.3 419.5 1317.2 433 1363.3C446.4 1409.4 452 1456.7 457.5 1504H0V1046.5Z" fill="#FF0000"/>
<path d="M0 1199C32.7 1200.8 65.4 1202.6 94.3 1213.9C123.1 1225.2 148 1245.9 173.5 1265.1C199.1 1284.3 225.2 1302 245.3 1325.8C265.5 1349.5 279.7 1379.5 288.6 1410.2C297.6 1440.9 301.3 1472.5 305 1504H0V1199Z" fill="#784F17"/>
<path d="M0 1351.5C16.4 1352.4 32.7 1353.3 47.1 1358.9C61.5 1364.6 74 1375 86.8 1384.6C99.5 1394.2 112.6 1403 122.7 1414.9C132.7 1426.8 139.8 1441.7 144.3 1457.1C148.8 1472.5 150.7 1488.2 152.5 1504H0V1351.5Z" fill="black"/>
</g>
<defs>
<clipPath id="clip0_1_2">
<rect width="2256" height="1504" fill="white"/>
</clipPath>
</defs>
</svg>
